<?xml version="1.0" encoding="utf-8"?>
<!-- Generator: Adobe Illustrator 16.0.4, SVG Export Plug-In . SVG Version: 6.00 Build 0)  -->
<!DOCTYPE svg PUBLIC "-//W3C//DTD SVG 1.1//EN" "http://www.w3.org/Graphics/SVG/1.1/DTD/svg11.dtd">
<svg version="1.1" id="Layer_2" xmlns="http://www.w3.org/2000/svg" xmlns:xlink="http://www.w3.org/1999/xlink" x="0px" y="0px"
	 width="1280px" height="3004px" viewBox="0 0 1280 3004" enable-background="new 0 0 1280 3004" xml:space="preserve">
<defs>
	<style><![CDATA[
		.a {fill: #ffffff;}


	]]></style>
</defs>





<g>
	<g>
		<path fill="#8AF4FF" d="M451.414,219.36v111.694h300.03v281.16h45.006V442.748h78.006v169.466h42.006V442.748h75.006v169.466
			h90.009v319.672H668.936v277.308H565.428V943.44H451.414v392.855h426.042v250.346H715.44v200.277H592.43v-304.268H346.403v400.559
			h669.066v142.504H655.435v96.291h171.017v231.088H481.416v182.947h-21v-209.906h345.035v-177.172H634.435v-150.205H994.47v-88.588
			H325.403v-454.475H613.43v304.268h81.011v-200.277h162.016v-196.43H430.414V916.483h156.014v265.753h61.508V904.928h412.541
			V639.172h-90.009V469.706h-33.006v169.466h-84.006V469.706H817.45v169.466h-87.006v-281.16H430.414V246.318H245.895V219.36
			H451.414 M451.414,210.296h-205.52c-5.006,0-9.064,4.058-9.064,9.064v26.958c0,5.006,4.058,9.064,9.064,9.064H421.35v102.63
			c0,5.006,4.058,9.064,9.064,9.064H721.38v272.095c0,5.006,4.059,9.064,9.064,9.064h87.006c5.006,0,9.064-4.058,9.064-9.064V478.77
			h17.878v160.402c0,5.006,4.058,9.064,9.063,9.064h84.006c5.006,0,9.064-4.058,9.064-9.064V478.77h14.877v160.402
			c0,5.006,4.059,9.064,9.064,9.064h80.944v247.628H647.936c-5.006,0-9.064,4.058-9.064,9.064v268.244h-43.38V916.483
			c0-5.006-4.058-9.064-9.064-9.064H430.414c-5.006,0-9.064,4.058-9.064,9.064v446.772c0,5.006,4.058,9.064,9.064,9.064h416.979
			v178.301H694.44c-5.006,0-9.063,4.059-9.063,9.064v191.213h-62.883v-295.203c0-5.006-4.058-9.064-9.064-9.064H325.403
			c-5.006,0-9.064,4.059-9.064,9.064v454.475c0,5.006,4.058,9.064,9.064,9.064h660.002v70.459H634.435
			c-5.006,0-9.064,4.059-9.064,9.064v150.205c0,5.006,4.058,9.064,9.064,9.064h161.952v159.043H460.416
			c-5.006,0-9.064,4.059-9.064,9.064v209.906c0,5.006,4.058,9.064,9.064,9.064h21c5.006,0,9.064-4.059,9.064-9.064v-173.883h335.971
			c5.006,0,9.064-4.059,9.064-9.064v-231.088c0-5.006-4.059-9.064-9.064-9.064H664.498v-78.162h350.972
			c5.006,0,9.064-4.059,9.064-9.064V1883.21c0-5.006-4.059-9.064-9.064-9.064H355.467v-382.432h227.898v295.205
			c0,5.006,4.058,9.064,9.064,9.064H715.44c5.006,0,9.064-4.059,9.064-9.064v-191.213h152.951c5.006,0,9.064-4.059,9.064-9.064
			v-250.346c0-5.006-4.059-9.064-9.064-9.064H460.478V952.504h95.886v256.69c0,5.006,4.058,9.064,9.064,9.064h103.508
			c5.006,0,9.064-4.059,9.064-9.064V940.951h403.477c5.006,0,9.063-4.059,9.063-9.064V612.214c0-5.006-4.058-9.064-9.063-9.064
			h-80.944V442.748c0-5.006-4.059-9.064-9.064-9.064h-75.006c-5.006,0-9.064,4.058-9.064,9.064V603.15h-23.877V442.748
			c0-5.006-4.059-9.064-9.064-9.064H796.45c-5.006,0-9.064,4.058-9.064,9.064V603.15h-26.877V331.054
			c0-5.006-4.059-9.064-9.064-9.064H460.478V219.36C460.478,214.354,456.42,210.296,451.414,210.296L451.414,210.296z"/>
	</g>
</g>





<g>
	<polygon fill="#CE2E54" points="481.416,2536.04 460.416,2536.04 460.416,2326.134 805.451,2326.134 805.451,2148.962 
		634.435,2148.962 634.435,1998.757 994.47,1998.757 994.47,1910.169 325.403,1910.169 325.403,1455.694 613.43,1455.694 
		613.43,1759.962 694.44,1759.962 694.44,1559.685 856.456,1559.685 856.456,1363.255 430.414,1363.255 430.414,916.483 
		586.428,916.483 586.428,1182.236 647.936,1182.236 647.936,904.928 1060.477,904.928 1060.477,639.172 970.468,639.172 
		970.468,469.706 937.462,469.706 937.462,639.172 853.456,639.172 853.456,469.706 817.45,469.706 817.45,639.172 730.444,639.172 
		730.444,358.012 430.414,358.012 430.414,246.318 245.895,246.318 245.895,219.36 451.414,219.36 451.414,331.054 751.444,331.054 
		751.444,612.214 796.45,612.214 796.45,442.748 874.456,442.748 874.456,612.214 916.462,612.214 916.462,442.748 991.468,442.748 
		991.468,612.214 1081.477,612.214 1081.477,931.886 668.936,931.886 668.936,1209.194 565.428,1209.194 565.428,943.44 
		451.414,943.44 451.414,1336.296 877.456,1336.296 877.456,1586.642 715.44,1586.642 715.44,1786.919 592.43,1786.919 
		592.43,1482.651 346.403,1482.651 346.403,1883.21 1015.47,1883.21 1015.47,2025.714 655.435,2025.714 655.435,2122.005 
		826.451,2122.005 826.451,2353.093 481.416,2353.093 	"/>
</g>






<g>
	<ellipse fill="#C9B297" cx="1096.326" cy="661.152" rx="54.772" ry="3.404"/>
	<g>
		<g>
			<path fill="#F29359" d="M1139.561,502.503h-33.713h-16.73h-33.715c-55.836,81.25,0,158.649,0,158.649h84.158
				C1139.561,661.152,1195.396,583.753,1139.561,502.503z"/>
			<path fill="#3D3A33" d="M1144.981,510.974c-1.681-2.817-3.476-5.643-5.421-8.471h-33.278h-16.729h-34.217
				c-1.944,2.829-3.74,5.654-5.422,8.471H1144.981z"/>
			<path fill="#3D3A33" d="M1041.317,527.917h112.327c-1.205-2.812-2.533-5.635-3.98-8.471H1045.3
				C1043.853,522.282,1042.524,525.106,1041.317,527.917z"/>
			<path fill="#3D3A33" d="M1032.294,558.723h130.375c-0.456-2.796-1.012-5.621-1.674-8.471h-127.027
				C1033.305,553.102,1032.749,555.927,1032.294,558.723z"/>
			<path fill="#3D3A33" d="M1034.688,613.403h125.586c0.665-2.738,1.268-5.564,1.796-8.471h-129.179
				C1033.422,607.838,1034.024,610.665,1034.688,613.403z"/>
			<path fill="#3D3A33" d="M1153.059,635.737h-111.153c1.245,3.064,2.504,5.896,3.727,8.471h103.699
				C1150.556,641.633,1151.813,638.801,1153.059,635.737z"/>
			<path fill="#3D3A33" d="M1144.985,652.679h-95.008c2.529,4.563,4.745,7.485,5.425,8.473h84.158
				C1140.241,660.164,1142.456,657.242,1144.985,652.679z"/>
			<g>
				<path fill="#3D3A33" d="M1066.631,661.152c-24.316-47.244-22.745-87.631-17.373-113.638c3.043-14.73,7.688-26.345,11.049-33.494
					c3.651-7.77,6.115-11.341,6.237-11.518h2.673c-0.117,0.169-12.001,17.808-17.719,45.588
					c-5.272,25.618-6.524,65.936,17.459,112.532L1066.631,661.152z"/>
			</g>
			<g>
				<path fill="#3D3A33" d="M1085.583,661.152c-20.878-44.43-19.535-84.977-14.927-111.579c4.997-28.833,14.723-46.745,14.824-46.93
					h2.7c-0.1,0.183-10.343,18.936-15.264,47.417c-4.535,26.252-5.617,66.751,14.986,110.602L1085.583,661.152z"/>
			</g>
			<g>
				<path fill="#3D3A33" d="M1128.148,661.152c24.317-47.244,22.746-87.631,17.373-113.638c-3.042-14.73-7.687-26.345-11.048-33.494
					c-3.652-7.77-6.116-11.341-6.238-11.518l-2.336,0.656c0.117,0.168,11.664,17.152,17.383,44.932
					c5.273,25.618,6.524,65.936-17.459,112.532L1128.148,661.152z"/>
			</g>
			<g>
				<path fill="#3D3A33" d="M1109.197,661.152c20.878-44.43,19.536-84.977,14.926-111.579c-4.995-28.833-14.795-46.885-14.896-47.07
					l-2.317,0.556c0.101,0.182,10.032,18.52,14.953,47c4.537,26.252,5.618,66.751-14.985,110.602L1109.197,661.152z"/>
			</g>
			<g>
				<rect x="1096.326" y="502.503" fill="#3D3A33" width="2.311" height="158.649"/>
			</g>
		</g>
		<path opacity="0.2" fill="#353434" d="M1118.652,509.306h23.561c0,0,35.12,72.411-2.652,150.027h-22.647
			C1116.913,659.333,1153.645,582.663,1118.652,509.306z"/>
	</g>
</g>







<g>
	<ellipse fill="#C9B297" cx="440.957" cy="990.758" rx="33.5" ry="7.004"/>
	<g>
		<g>
			<path fill="#282826" d="M471.104,980.399V842.884c-0.119-4.327-6.85-13.223-12.619-20.675c-5.771-7.452-4.811-8.054-4.811-8.054
				v-52.528c0,0,1.924,0,1.924-3.606s-1.924-3.245-1.924-3.245s0-0.481,0-3.246s-3.725-2.523-3.725-2.523h-8.294h-8.295
				c0,0-3.726-0.241-3.726,2.523s0,3.246,0,3.246s-1.924-0.361-1.924,3.245s1.924,3.606,1.924,3.606v52.528
				c0,0,0.961,0.602-4.809,8.054s-12.502,16.348-12.621,20.675v137.515c0,0-1.802,12.623,29.45,12.623
				S471.104,980.399,471.104,980.399z"/>
			<path fill="#EA4E4E" d="M453.675,754.776c0,0,0-0.481,0-3.246s-3.725-2.523-3.725-2.523h-8.294h-8.295
				c0,0-3.726-0.241-3.726,2.523s0,3.246,0,3.246s-1.924-0.361-1.924,3.245s1.924,3.606,1.924,3.606v28.339h24.039v-28.339
				c0,0,1.924,0,1.924-3.606S453.675,754.776,453.675,754.776z"/>
			<path fill="#DB1B1B" d="M446.076,789.966v-40.96h-4.42h-8.295c0,0-3.726-0.241-3.726,2.523s0,3.246,0,3.246
				s-1.924-0.361-1.924,3.245s1.924,3.606,1.924,3.606v28.339H446.076z"/>
			<path fill="#B4B5B9" d="M452.073,822.725c0,0,11.994,16.148,12.457,23.069c0.462,6.922,0,134.267,0,134.267
				s-1.845,2.768-7.383,3.691V846.257C457.147,846.257,455.767,831.723,452.073,822.725z"/>
			<path fill="#474948" d="M431.771,822.725c0,0-15.227,13.843-15.688,23.532c-0.462,9.688,0,133.341,0,133.341
				s0.855,5.193,16.957,5.652c0,0-10.035-148.337,8.615-162.525H431.771z"/>
		</g>
		<path fill="#F7F7F5" d="M413.799,863.559c0,0,21.455,8.997,55.713,0v49.139c0,0-23.446,10.381-55.713,0V863.559z"/>
	</g>
</g>






<g>
	<ellipse fill="#C9B297" cx="867.11" cy="1394.984" rx="33.5" ry="7.004"/>
	<g>
		<g>
			<path fill="#282826" d="M897.258,1384.625V1247.11c-0.119-4.327-6.85-13.223-12.619-20.675c-5.771-7.452-4.811-8.054-4.811-8.054
				v-52.528c0,0,1.924,0,1.924-3.606s-1.924-3.245-1.924-3.245s0-0.481,0-3.246s-3.725-2.523-3.725-2.523h-8.294h-8.295
				c0,0-3.726-0.241-3.726,2.523s0,3.246,0,3.246s-1.924-0.361-1.924,3.245s1.924,3.606,1.924,3.606v52.528
				c0,0,0.961,0.602-4.809,8.054s-12.502,16.348-12.621,20.675v137.515c0,0-1.802,12.623,29.45,12.623
				S897.258,1384.625,897.258,1384.625z"/>
			<path fill="#EA4E4E" d="M879.828,1159.002c0,0,0-0.481,0-3.246s-3.725-2.523-3.725-2.523h-8.294h-8.295
				c0,0-3.726-0.241-3.726,2.523s0,3.246,0,3.246s-1.924-0.361-1.924,3.245s1.924,3.606,1.924,3.606v28.339h24.039v-28.339
				c0,0,1.924,0,1.924-3.606S879.828,1159.002,879.828,1159.002z"/>
			<path fill="#DB1B1B" d="M872.229,1194.192v-40.96h-4.42h-8.295c0,0-3.726-0.241-3.726,2.523s0,3.246,0,3.246
				s-1.924-0.361-1.924,3.245s1.924,3.606,1.924,3.606v28.339H872.229z"/>
			<path fill="#B4B5B9" d="M878.227,1226.951c0,0,11.994,16.148,12.457,23.069c0.462,6.922,0,134.267,0,134.267
				s-1.845,2.768-7.383,3.691v-137.495C883.301,1250.483,881.92,1235.949,878.227,1226.951z"/>
			<path fill="#474948" d="M857.925,1226.951c0,0-15.227,13.843-15.688,23.532c-0.462,9.688,0,133.341,0,133.341
				s0.855,5.193,16.957,5.652c0,0-10.035-148.337,8.615-162.525H857.925z"/>
		</g>
		<path fill="#F7F7F5" d="M839.952,1267.785c0,0,21.455,8.997,55.713,0v49.139c0,0-23.446,10.381-55.713,0V1267.785z"/>
	</g>
</g>







<g>
	<ellipse fill="#C9B297" cx="214.514" cy="317.487" rx="30.98" ry="4.875"/>
	<g>
		<g>
			
				<ellipse transform="matrix(0.8422 0.5392 -0.5392 0.8422 152.6817 -57.1085)" fill="#527C0F" cx="173.898" cy="232.27" rx="14.642" ry="17.765"/>
			<path fill="#6D9116" d="M188.027,224.605c0,0-0.476,16.511-18.829,21.672C169.198,246.277,186.365,234.463,188.027,224.605z"/>
		</g>
		<g>
			<path fill="#72A81D" d="M238.282,274.146c0.421,14.699-9.06,26.893-21.177,27.238c-12.112,0.341-22.271-11.291-22.688-25.988
				c-0.417-14.698,9.063-26.894,21.176-27.236C227.707,247.814,237.864,259.451,238.282,274.146z"/>
			<path fill="#C5EA75" d="M227.845,255.706c0,0,11.258,12.085,1.819,28.649C229.665,284.355,233.586,263.89,227.845,255.706z"/>
		</g>
		<g>
			<path fill="#5C8E16" d="M210.328,262.634c-5.489,11.908-17.894,17.89-27.714,13.366c-9.809-4.528-13.316-17.85-7.822-29.757
				c5.49-11.907,17.898-17.887,27.712-13.362C212.319,237.407,215.816,250.728,210.328,262.634z"/>
			<path fill="#82AF2B" d="M209.623,252.126c0,0-1.976,16.398-20.722,19.868C188.901,271.995,207.07,261.792,209.623,252.126z"/>
		</g>
		<g>
			
				<ellipse transform="matrix(0.8447 -0.5353 0.5353 0.8447 -82.9612 164.9167)" fill="#466608" cx="242.662" cy="225.396" rx="21.337" ry="25.89"/>
			<path fill="#6D9116" d="M242.71,204.465c0,0,16.268,2.856,18.723,21.763C261.433,226.228,252.225,207.534,242.71,204.465z"/>
		</g>
		<path fill="#517715" d="M217.331,182.541c-5.062,14.773-19.034,23.368-31.215,19.199c-12.175-4.174-17.943-19.534-12.88-34.306
			c5.062-14.775,19.037-23.371,31.214-19.198C216.627,152.409,222.392,167.766,217.331,182.541z"/>
		<path fill="#5C8E16" d="M249.402,192.117c0.418,14.697-9.062,26.891-21.179,27.236c-12.112,0.342-22.271-11.291-22.688-25.988
			c-0.415-14.696,9.064-26.891,21.178-27.234C238.826,165.786,248.982,177.421,249.402,192.117z"/>
		<path fill="#5C8E16" d="M183.444,218.598c-6.921,8.822-18.424,11.348-25.699,5.642c-7.267-5.704-7.551-17.482-0.626-26.303
			c6.922-8.82,18.426-11.345,25.695-5.639C190.085,198.001,190.365,209.776,183.444,218.598z"/>
		<path fill="#82541C" d="M214.663,129.267c0,0,6.134-15.482-1.383-27.615c0,0,8.149-3.348,10.165-10.003
			c0,0,5.087,24.097-2.497,38.03L214.663,129.267z"/>
		<g>
			
				<ellipse transform="matrix(0.9979 0.0655 -0.0655 0.9979 10.6222 -13.8591)" fill="#6DAD1A" cx="216.546" cy="154.97" rx="21.337" ry="25.889"/>
			<path fill="#98D147" d="M224.501,135.489c0,0,12.982,10.213,6.204,28.031C230.706,163.52,231.434,142.695,224.501,135.489z"/>
		</g>
		<g>
			<path fill="#527C0F" d="M270.976,184.649c6.688,9.899,5.495,22.392-2.666,27.907c-8.16,5.509-20.195,1.953-26.88-7.947
				c-6.688-9.901-5.494-22.396,2.666-27.904C252.253,171.192,264.288,174.75,270.976,184.649z"/>
			<g>
				<path fill="#82AF2B" d="M252.072,177.606c0,0,16.441,1.571,20.373,20.228C272.445,197.833,261.798,179.919,252.072,177.606z"/>
			</g>
		</g>
		<g>
			
				<ellipse transform="matrix(0.9448 -0.3278 0.3278 0.9448 -40.0422 91.4747)" fill="#86C42D" cx="251.356" cy="164.53" rx="21.337" ry="25.887"/>
			<path fill="#C5EA75" d="M250.636,142.767c0,0,16.269,2.855,18.724,21.764C269.36,164.531,260.152,145.836,250.636,142.767z"/>
		</g>
		<g>
			<path fill="#86C42D" d="M193.232,179.454c-3.396,13.89-15.43,22.881-26.877,20.08c-11.447-2.797-17.973-16.326-14.577-30.216
				c3.396-13.889,15.43-22.879,26.875-20.08C190.103,152.036,196.628,165.568,193.232,179.454z"/>
			<path fill="#C5EA75" d="M187.167,165.338c0,0,6.187,15.313-8.556,27.403C178.612,192.742,189.599,175.036,187.167,165.338z"/>
		</g>
		<g>
			<path fill="#6DAD1A" d="M215.718,222.359c-3.42,13.882-15.47,22.853-26.912,20.034c-11.442-2.821-17.944-16.358-14.524-30.243
				c3.42-13.883,15.469-22.851,26.91-20.035C212.635,194.937,219.138,208.476,215.718,222.359z"/>
			<path fill="#98D147" d="M209.494,201.053c0,0,9.253,13.682-2.635,28.587C206.859,229.64,213.9,210.027,209.494,201.053z"/>
		</g>
		<g>
			<path fill="#527C0F" d="M252.168,239.53c6.689,9.9,5.496,22.392-2.665,27.907c-8.16,5.51-20.196,1.953-26.881-7.949
				c-6.688-9.896-5.496-22.394,2.663-27.903C233.447,226.073,245.481,229.63,252.168,239.53z"/>
			<path fill="#92B524" d="M235.367,231.586c0,0,16.11,3.645,17.643,22.647C253.009,254.234,244.721,235.116,235.367,231.586z"/>
		</g>
		<g>
			<path fill="#86C42D" d="M244.173,234.816c0.419,14.697-9.061,26.89-21.178,27.237c-12.113,0.341-22.271-11.293-22.688-25.988
				c-0.418-14.698,9.062-26.894,21.177-27.236C233.597,208.483,243.753,220.121,244.173,234.816z"/>
			<path fill="#C5EA75" d="M231.676,216.57c0,0,13.13,10.02,6.611,27.937C238.288,244.506,238.712,223.671,231.676,216.57z"/>
		</g>
		<g>
			<path fill="#80BA25" d="M212.075,292.667c-3.96,8.587-12.904,12.898-19.984,9.639c-7.071-3.265-9.603-12.872-5.641-21.456
				c3.959-8.587,12.905-12.9,19.981-9.636S216.032,284.083,212.075,292.667z"/>
			<path fill="#C5EA75" d="M211.513,281.75c0,0-2.038,14.717-18.954,17.54C192.559,299.29,209.064,290.404,211.513,281.75z"/>
		</g>
		<g>
			<path fill="#92D320" d="M228.331,298.015c2.199,9.197-2.158,18.12-9.74,19.938c-7.576,1.81-15.505-4.174-17.702-13.368
				c-2.203-9.197,2.157-18.119,9.736-19.932C218.204,282.839,226.129,288.825,228.331,298.015z"/>
			<path fill="#C5EA75" d="M210.61,286.758c0,0,13.351,2.344,15.366,17.86C225.976,304.619,218.419,289.278,210.61,286.758z"/>
		</g>
		<g>
			<path fill="#A8E822" d="M222.758,98.793c0,0-19.975-19.728-1.939-29.251c18.037-9.523,63.323,7.083,73.243-3.38
				c0,0-17.296,18.288-25.29,32.149C259.611,114.197,230.693,151.471,222.758,98.793z"/>
			<g>
				<path fill="#37B14E" d="M226.942,99.239l-0.256-1.747c0.271-0.04,27.576-3.703,53.869-23.76l0.701,0.918
					C254.583,95,227.216,99.198,226.942,99.239z"/>
			</g>
			<g>
				<path fill="#37B14E" d="M231.427,97.084c-0.441-0.441-10.818-10.907-11.731-17.596l0.37-0.05
					c0.831,6.104,13.199,17.185,13.303,17.29L231.427,97.084z"/>
			</g>
			<g>
				<path fill="#37B14E" d="M244.97,93.15c-0.495-0.485-12.129-11.993-12.379-19.39l0.335-0.011
					c0.224,6.692,14.153,18.672,14.271,18.786L244.97,93.15z"/>
			</g>
			<g>
				<path fill="#37B14E" d="M256.147,88.367c-0.634-1.062-6.173-10.504-5.559-14.762l0.507,0.145
					c-0.447,3.084,5.722,11.193,7.354,13.932L256.147,88.367z"/>
			</g>
			<g>
				<path fill="#37B14E" d="M231.683,97.907c-0.092,0.618-2.219,15.202,1.022,21.125l0.327-0.179
					c-2.959-5.405,0.405-21.666,0.425-21.812L231.683,97.907z"/>
			</g>
			<g>
				<path fill="#37B14E" d="M244.917,93.025c-0.111,0.686-2.63,16.854,1.562,22.95l0.276-0.188
					c-3.796-5.516,0.289-23.431,0.316-23.592L244.917,93.025z"/>
			</g>
			<g>
				<path fill="#37B14E" d="M256.137,88.54c0.125,1.229,1.278,12.116,4.302,15.175l0.321-0.416
					c-2.19-2.215-2.047-12.402-2.362-15.577L256.137,88.54z"/>
			</g>
		</g>
	</g>
</g>









<g class="c">
	<g>
		<path fill="#DDAD61" d="M274.023,1728.564c-6.496,5.28-11.872,16.999-22.582,21.014c-11.4,4.271-24.604,15.12-24.604,15.12
			s-6.864,4.278-19.82,21.001c-7.007,9.043-18.687,12.54-25.181,17.823c-6.496,5.28-9.503,11.485-0.027,23.141
			c10.902,13.406,21.479,10.112,27.211,1.817c8.801-12.738,17.11-19.681,24.387-22.622c4.348-1.758,9.405-5.949,12.777-9.043
			c0.186,0.846,0.563,1.658,1.146,2.374l35.694,43.896c2.011,2.473,5.646,2.848,8.119,0.837c2.473-2.014,2.848-5.649,0.839-8.121
			l-35.693-43.897c-0.584-0.719-1.308-1.255-2.102-1.61c3.727-2.667,8.963-6.817,11.604-10.765
			c4.368-6.527,12.855-13.245,27.122-19.265c9.288-3.918,14.671-13.602,3.767-27.007
			C287.207,1721.6,280.519,1723.281,274.023,1728.564z"/>
		<g>
			<path fill="#909093" d="M337.475,1911.82c-0.148,0.122-0.261,0.211-0.338,0.271l-2.66-3.417c2.695-2.125,6.807-4.472,5.66-7.671
				c-1.229-3.43-3.038-3.196-7.178-1.78c-1.956,0.671-3.647,1.247-5.161,0.464c-0.746-0.382-1.281-1.022-1.51-1.805
				c-0.477-1.646,0.477-3.271,1.682-5.329c1.132-1.934,2.537-4.326,2.258-6.056c-0.907-0.439-4.258,0.03-5.899,0.259
				c-3.585,0.508-6.414,0.903-7.963-0.843c-0.431-0.484-1.087-1.546-0.645-3.214c0.284-1.081,0.675-2.242,1.049-3.362
				c1.333-3.957,2.234-7.065,0.76-8.025c-1.028-0.671-3.681-0.155-5.617,0.224c-2.747,0.536-5.121,0.999-6.731-0.451
				c-0.586-0.527-1.253-1.502-1.108-3.157c0.167-1.928,1.069-3.745,1.867-5.349c1.782-3.588,1.53-3.928,0.292-4.662
				c-1.63-0.965-3.858-0.766-6.006-0.573c-2.388,0.213-4.644,0.418-6.301-1.022c-0.942-0.819-1.462-2.009-1.535-3.53
				c-0.228-4.534-4.237-9.256-4.276-9.303l3.28-2.829c0.207,0.24,5.019,5.882,5.322,11.918c0.017,0.39,0.09,0.52,0.089,0.522
				c0.337,0.177,1.958,0.028,3.033-0.068c2.571-0.231,5.77-0.52,8.604,1.16c5.02,2.979,2.738,7.571,1.377,10.312
				c-0.547,1.096-1.104,2.223-1.335,3.207c0.734-0.059,1.808-0.268,2.6-0.423c2.958-0.577,6.31-1.232,8.811,0.397
				c4.397,2.869,2.5,8.505,0.981,13.033c-0.251,0.746-0.495,1.465-0.702,2.143c0.986-0.028,2.465-0.235,3.549-0.389
				c4.146-0.586,9.822-1.381,10.728,3.049c0.688,3.361-1.298,6.747-2.747,9.222c-0.077,0.131-0.162,0.273-0.246,0.417
				c0.035-0.009,0.067-0.022,0.1-0.033c3.204-1.096,9.865-3.371,12.653,4.416C346.552,1906.066,339.5,1910.176,337.475,1911.82z"/>
		</g>
		<path fill="#76757D" d="M291.983,1835.802l-35.693-43.897c-0.546-0.671-1.219-1.164-1.948-1.521l-8.101,6.589
			c0.198,0.787,0.547,1.547,1.091,2.217l35.694,43.896c2.011,2.473,5.646,2.848,8.119,0.837
			C293.618,1841.909,293.993,1838.273,291.983,1835.802z"/>
		<polygon fill="#B5B5B5" points="291.554,1839.356 290.306,1841.546 250.949,1793.144 252.771,1791.663 		"/>
		<g>
			<path fill="#E8C087" d="M204.381,1826.697c-7.021,5.708-16.81,3.819-16.81,3.819c0.252,0.028,11.545-3.62,18.667-12.942
				c5.933-7.77,13.546-13.241,23.176-20.165c4.903-3.525,10.457-7.518,16.502-12.356c7.769-6.208,13.352-11.472,17.832-15.691
				c5.819-5.479,10.022-9.434,15.182-11.973c9.69-4.769,19.52-16.409,19.47-20.217c0,0,3.211,15.137-17.591,24.882
				c-5.882,2.756-9.744,5.896-15.383,12.566c-4.051,4.79-8.431,7.942-16.411,14.324c-6.18,4.945-11.338,9.763-16.774,12.563
				c-10.264,5.287-12.967,7.218-21.779,18.809C208.391,1823.038,206.331,1825.11,204.381,1826.697z"/>
		</g>
		<g>
			
				<rect x="316.071" y="1857.858" transform="matrix(0.7759 -0.6309 0.6309 0.7759 -1122.4037 636.6403)" fill="#E8C087" width="37.586" height="80.473"/>
			
				<rect x="325.479" y="1861.985" transform="matrix(0.7758 -0.631 0.631 0.7758 -1126.3405 634.5872)" fill="#F2D7B8" width="8.619" height="80.474"/>
			<g>
				<path fill="#9D856D" d="M306.471,1886.089c1.01,2.451,3.625,3.886,3.255,2.477
					C309.359,1887.158,305.513,1883.763,306.471,1886.089z"/>
				<path fill="#9D856D" d="M316.931,1885.969c-0.994,0.999-1.865,4.004,0.451,2.273c2.32-1.731,4.394-3.573,4.029-4.595
					C321.045,1882.624,320.177,1882.709,316.931,1885.969z"/>
				<path fill="#9D856D" d="M309.587,1874.86c1.189,3.285,4.649,3.209,3.22,1.264C311.38,1874.178,308.979,1873.182,309.587,1874.86
					z"/>
				<path fill="#9D856D" d="M316.332,1865.182c0.542,2.116,2.986,4.249,2.766,2.256
					C318.875,1865.444,315.907,1863.513,316.332,1865.182z"/>
				<path fill="#9D856D" d="M325.01,1876.583c1.574,2.007,3.368,3.61,2.614,1.915c-0.756-1.694-3.665-5.46-3.542-4.356
					C324.204,1875.243,324.254,1875.623,325.01,1876.583z"/>
				<path fill="#9D856D" d="M300.463,1876.846c0.265,1.681,1.58,2.843,2.133,1.805
					C303.148,1877.611,300.138,1874.783,300.463,1876.846z"/>
				<path fill="#9D856D" d="M325.006,1863.246c0.469,1.894,2.229,3.506,2.663,2.13
					C328.102,1863.997,324.398,1860.779,325.006,1863.246z"/>
				<path fill="#9D856D" d="M323.229,1894.667c1.012,1.817,5.091,5.487,3.925,2.245
					C325.986,1893.668,322.218,1892.851,323.229,1894.667z"/>
				<path fill="#9D856D" d="M326.83,1890.186c0.723,1.917,4.036,3.377,3.167,1.921C329.123,1890.651,325.8,1887.453,326.83,1890.186
					z"/>
				<path fill="#9D856D" d="M331.958,1884.154c0.771,1.897,2.982,2.84,2.049,0.889
					C333.07,1883.095,330.676,1881.004,331.958,1884.154z"/>
				<path fill="#9D856D" d="M323.152,1908.704c0.957,1.533,2.805,3.306,3.416,2.504
					C327.175,1910.404,321.095,1905.408,323.152,1908.704z"/>
				<path fill="#9D856D" d="M350.031,1898.028c1.237,2.099,4.231,4.633,3.423,2.495
					C352.649,1898.384,348.79,1895.932,350.031,1898.028z"/>
				<path fill="#9D856D" d="M357.418,1902.424c0.854,2.133,4.389,4.973,4.713,4.397S355.817,1898.445,357.418,1902.424z"/>
				<path fill="#9D856D" d="M340.542,1921.115c0.092,1.488,3.187,5.638,4.562,5.609
					C346.474,1926.693,340.349,1918.012,340.542,1921.115z"/>
				<path fill="#9D856D" d="M338.266,1904.487c0.897,1.758,2.915,3.688,2.691,2.16
					C340.735,1905.121,337.371,1902.732,338.266,1904.487z"/>
				<path fill="#9D856D" d="M358.5,1917.07c1.269,2.052,4.351,3.451,2.751,1.178C359.654,1915.977,357.095,1914.798,358.5,1917.07z"
					/>
				<path fill="#9D856D" d="M341.646,1889.338c1.01,1.816,5.091,5.486,3.923,2.244
					C344.403,1888.336,340.633,1887.52,341.646,1889.338z"/>
				<path fill="#9D856D" d="M348.182,1921.077c1.011,1.815,5.091,5.487,3.923,2.244
					C350.939,1920.078,347.169,1919.259,348.182,1921.077z"/>
				<path fill="#9D856D" d="M332.248,1915.646c1.013,1.819,5.091,5.489,3.926,2.244
					C335.006,1914.649,331.238,1913.832,332.248,1915.646z"/>
			</g>
		</g>
	</g>
</g>








<g class="b">
	<ellipse fill="#C9B297" cx="1002.783" cy="2138.781" rx="39.909" ry="8.346"/>
	<g>
		<path fill="#D4D4D4" d="M1014.101,2130.178c-7.973-1.027-7.717-10.545-7.717-10.545s-0.256-32.662-0.256-41.922
			s5.145-13.373,5.145-13.373c21.858-7.203,28.545-29.578,26.746-45.01c-1.799-15.434-7.971-35.236-9.772-36.266
			c-1.8-1.029-25.463-1.287-25.463-1.287s-23.662,0.258-25.461,1.287c-1.803,1.029-7.975,20.832-9.775,36.266
			c-1.801,15.432,4.888,37.807,26.748,45.01c0,0,5.146,4.113,5.146,13.373s-0.258,41.922-0.258,41.922s0.9,10.16-7.716,10.545
			c-6.51,0.293-21.09,2.059-22.633,5.918c0,0-3.344,6.713,33.949,6.686c37.294,0.027,33.949-6.686,33.949-6.686
			C1035.705,2131.723,1019.803,2130.916,1014.101,2130.178z"/>
		<path fill="#CE2E54" d="M971.65,2023.465c0,0-1.887,36.008,31.892,36.008c0,0,31.723,2.059,30.349-36.008
			c0,0-13.202,4.115-26.576,4.461C992.835,2028.295,987.599,2020.895,971.65,2023.465z"/>
		<path fill="#0C0C0C" d="M1014.101,2130.178c-7.973-1.027-7.717-10.545-7.717-10.545s-0.256-32.662-0.256-41.922
			c0-7.256,3.775-11.941,5.145-13.373c0,0-4.238,1.875-8.493,1.875c-4.253,0-8.484-1.875-8.484-1.875
			c1.37,1.432,5.146,6.117,5.146,13.373c0,9.26-0.258,41.922-0.258,41.922s0.9,10.16-7.716,10.545
			c-6.51,0.293-21.09,2.059-22.633,5.918c0,0-3.344,6.713,33.949,6.686c37.294,0.027,33.949-6.686,33.949-6.686
			C1035.705,2131.723,1019.803,2130.916,1014.101,2130.178z"/>
		<path fill="#F90C15" d="M1033.891,2023.465c0,0-13.202,4.115-26.576,4.461c-14.479,0.369-19.716-7.031-35.664-4.461
			c0,0,13.264,2.422,22.175,6.986C1006.904,2037.15,1025.145,2030.678,1033.891,2023.465z"/>
		<path opacity="0.4" fill="#F9F7F7" d="M985.126,1988.795h14.462c0,0-16.591,29.562-5.529,51.258h-13.613
			C980.445,2040.053,968.535,2016.443,985.126,1988.795z"/>
		<path opacity="0.4" fill="#F9F7F7" d="M1021.08,1988.795h-4.255c0,0,16.589,29.562,5.531,51.258h3.401
			C1025.758,2040.053,1037.671,2016.443,1021.08,1988.795z"/>
	</g>
</g>






<g class="a">
	<ellipse fill="#C9B297" cx="472.457" cy="2694.602" rx="41.043" ry="6.083"/>
	<g>
		<path fill="#D4D4D4" d="M476.976,2678.59v-54.863c23.73-23.73,22.643-48.771,22.643-48.771v-54.864h-26.996h-0.87h-26.998v54.864
			c0,0-1.089,25.04,22.643,48.771v54.863c0,0-41.2,14.37-26.561,14.37c3.504,0,30.48,0,30.48,0h1.741c0,0,20.396,0,30.479,0
			C519.808,2692.96,476.976,2678.59,476.976,2678.59z"/>
		<path fill="#0C0C0C" d="M476.976,2678.59v-54.863c0.029-0.03,0.06-0.062,0.089-0.094c0,0-1.77,1.79-5.039,1.79
			s-4.719-1.79-4.719-1.79c0.03,0.031,0.061,0.063,0.09,0.094v54.863c0,0-41.2,14.37-26.561,14.37c3.504,0,30.48,0,30.48,0h1.741
			c0,0,20.396,0,30.479,0C519.808,2692.96,476.976,2678.59,476.976,2678.59z"/>
		<path fill="#CE2E54" d="M472.457,2554.766H448.26v20.639c0,0,3.572,34.896,24.197,43.28c22.264-12.158,24.197-43.28,24.197-43.28
			v-20.639H472.457z"/>
		<path opacity="0.3" fill="#F9F7F7" d="M451.557,2523.837h9.622c0,0,0,37.94,0,45.98c0,8.041,0.413,31.547,2.475,34.847
			c0,0-12.097-17.939-12.097-30.31C451.557,2567.136,451.557,2523.837,451.557,2523.837z"/>
		<path opacity="0.3" fill="#F9F7F7" d="M493.758,2523.837h-3.71c0,0,0,37.94,0,45.98c0,8.041-5.361,29.622-7.425,32.922
			l4.664-6.604c0,0,6.471-12.09,6.471-21.781C493.758,2567.136,493.758,2523.837,493.758,2523.837z"/>
	</g>
</g>
</svg>
